# xmcd
#
# Track frame offsets: 
#        150
#        16580
#        33160
#        49732
#        68420
#        91295
#        105125
#        118032
#        133662
#        161535
#        173950
#        242660
#
# Disc length: 4165 seconds
#
# Revision: 4
# Processed by: cddbd v1.4PL0 Copyright (c) Steve Scherf et al.
# Submitted via: ExactAudioCopy v0.90b4
#
DISCID=8610430c
DTITLE=Chocolate Genius - Black Music
DYEAR=1998
DGENRE=
TTITLE0=Life
TTITLE1=Half a Man
TTITLE2=Don't Look Down
TTITLE3=Clinic
TTITLE4=My Mom
TTITLE5=Safe and Sound
TTITLE6=A Cheap Excuse
TTITLE7=Hangover Five
TTITLE8=Hangover Nine
TTITLE9=Stupid Again
TTITLE10=It's All Good
TTITLE11=Data Track
EXTD=
EXTT0=
EXTT1=
EXTT2=
EXTT3=
EXTT4=
EXTT5=
EXTT6=
EXTT7=
EXTT8=
EXTT9=
EXTT10=
EXTT11=
PLAYORDER=
